<?xml version="1.0" encoding="UTF-8"?><svg id="Layer_1" xmlns="http://www.w3.org/2000/svg" viewBox="0 0 1488.03 267.66"><defs><style>.cls-1{fill:#032654;fill-rule:evenodd;}</style></defs><path class="cls-1" d="M1281.96,208.55c8.07,0,13.9-2.49,17.79-4.98v22.21c-5.83,1.67-13.88,3.9-22.22,3.9-26.92,0-43.6-12.8-43.6-41.1V105.17h-31.93v-21.85h31.93v-27.94l26.12-8.33v36.26h37.47v21.85h-37.47v78.13c0,16.38,9.98,25.25,21.91,25.25h0Zm-78.32-66.35v84.13h-26.1v-73.3c0-33.04-7.23-49.15-30-50.54-29.71,0-43.03,23.87-43.03,58.32v65.52h-26.12V83.32h25.3v23.89h.54c7.77-16.11,26.65-25.82,46.36-25.82,36.65,0,53.05,22.77,53.05,60.81h0Zm-239.9-.27c1.92-18.33,12.48-39.44,38.03-39.44,22.49,0,35.26,17.76,35.26,39.44h-73.29Zm38.59-60.55c-39.98,0-66.37,29.72-66.37,71.64,0,46.1,23.07,76.65,73.32,76.65,23.33,0,36.31-6.2,46.31-9.79v-26.13c-6.39,5.28-27.99,14.82-45.2,14.82-24.72,0-46.64-19.16-46.64-47.22h101.06c0-45.54-15.26-79.97-62.47-79.97h0Zm392.81,89.96c0,21.12-13.6,37.24-39.44,37.24-11.94,0-26.38-8.06-26.38-23.06,0-24.99,35-27.21,49.17-27.21,5.55,0,11.1,.55,16.65,.55v12.48h0Zm26.1-31.36c0-38.6-16.35-58.59-56.91-58.59-18.05,0-33.61,5.56-46.65,13.32l1.38,22.22c10.55-8.89,26.38-14.44,41.09-14.44,26.11,0,34.99,12.49,34.99,36.93-10.24-.55-17.49-.55-27.76-.55-26.94,0-65.81,11.1-65.81,46.64,0,30.82,21.37,44.16,51.92,44.16,23.85,0,37.76-13.06,43.87-21.66h.54v18.32h24.46c-.56-4.16-1.13-11.66-1.13-27.74v-58.61h0Zm-590.42,63.9h-26.23V70.83h29.21c35.96,0,63.68,24.46,63.68,66.02,0,45.88-23.74,67.03-66.67,67.03h0Zm.24-155.48h-51.44V226.32h51.44c57.43,0,92.9-30.85,92.9-90.48,0-54.8-41.22-87.44-92.9-87.44h0Zm609.65,177.92h26.11V45.58h-26.11V226.32h0ZM76.05,153.82c-2.89,0-4.86-2.89-3.81-5.54l17.41-43.76c1.91-4.74,8.62-4.74,10.46,0l17.42,43.76c1.05,2.65-.92,5.54-3.75,5.54h-37.73Zm-9.23-85.24h-9.78L.66,212.96c-2.46,6.46,2.28,13.36,9.17,13.36h27.2c2.52,0,4.74-1.48,5.66-3.82l12.68-31.82c.68-1.73,2.27-2.84,4.12-2.84h70.78c1.84,0,3.45,1.11,4.12,2.84l12.68,31.82c.92,2.33,3.14,3.82,5.66,3.82h27.2c6.89,0,11.69-6.9,9.17-13.3-3.59-9.23-32.58-83.46-32.62-83.58-14.16-35.63-48.99-60.87-89.67-60.87h0Zm235.98,113.7c-1.11,31.45-25.43,46.7-66.91,46.7-12.39,0-23.86-2.9-35.45-6-.55-.15-.95-.63-.99-1.19l-2.99-35.14c-.06-.67,.58-1.18,1.2-.94,7.53,2.98,22.88,8.27,37.78,8.84,11.38,.37,20.15-1.79,20.45-10.49,.89-25.95-70.78-11.38-69-62.38,1.19-33.61,30.33-45.28,60.97-45.28,21.85,0,30.09,2.62,43.77,7.78,.31,.42,.53,.73,.84,1.15v34.39c0,.7-.72,1.06-1.32,.7-10.18-6.18-24.77-9.75-36.52-10.12-10.71-.38-24.17,1.19-24.46,9.29-.74,22.68,74.42,9.74,72.64,62.68h0Zm455.24-44.04l-.08,86.9c0,.65-.53,1.18-1.18,1.18h-40.49c-.65,0-1.18-.53-1.18-1.18v-68.85c0-27.3-11.53-36.49-25.17-36.49-20.61,0-31.18,14.21-31.18,45.39v59.95c0,.65-.53,1.18-1.18,1.18h-40.49c-.65,0-1.18-.53-1.18-1.18V84.49c0-.65,.53-1.18,1.18-1.18h36.03c.65,0,1.18,.53,1.18,1.18v23.62h.55c10.03-20.9,24.94-27.8,47.77-27.8,39.53,0,55.41,27.85,55.41,57.91h0ZM70.45,52.33h-7.08L79.81,10.29c5.35-13.73,24.8-13.73,30.22,0l22.71,58.4c-1.66-.92-28.62-16.37-62.28-16.37h0ZM383.26,191.85c-15.61,0-28.61-16.03-28.61-37.42s11.45-38.24,28.61-38.24c18.22,0,28.37,16.88,28.37,36.27,0,23.35-10.67,39.38-28.37,39.38h0Zm12.88-110.54c-19.45,0-35.31,9.33-45.68,24.63v-21.44c0-.65-.53-1.18-1.18-1.18h-36.77c-.65,0-1.18,.53-1.18,1.18v181.99c0,.65,.53,1.18,1.18,1.18h40.61c.65,0,1.18-.53,1.18-1.18v-62.35c10.75,12.84,25.6,20.59,41.83,20.59,36.48,0,58.47-30.41,58.47-74.64,0-36.8-20.91-68.77-58.47-68.77h0Zm109.98,58.67c1.1-16.72,9.66-30.39,27.62-30.39,19.88,0,27.62,13.67,27.62,30.39h-55.24Zm27.71-62.17c-45.35,0-71.21,27.88-71.21,75.84s29.8,74.9,77.92,76.15c22.55,.56,41.15-5.03,57.18-11.31,.31-.46,.54-.8,.85-1.25l.03-32.25c0-.67-.67-1.09-1.26-.78-14.97,7.66-34.51,12.12-47.85,12.12-24.62,0-40.03-7.82-42.81-27.88h96.14c.65,0,1.17-.53,1.17-1.18v-8.04c0-43.22-16.16-81.42-70.17-81.42h0Zm948.36-27.98c-.36-.2-.92-.29-1.69-.29h-1.19v2.86h1.27c.6,0,1.03-.05,1.32-.17,.55-.22,.82-.63,.82-1.23,0-.57-.18-.96-.53-1.16m-1.51-1.25c.98,0,1.7,.1,2.16,.29,.82,.34,1.22,1.01,1.22,2.01,0,.71-.26,1.23-.77,1.56-.28,.18-.66,.3-1.15,.38,.62,.1,1.07,.36,1.36,.78,.28,.42,.43,.83,.43,1.23v.58l.02,.59,.07,.41,.05,.1h-1.31l-.02-.08v-.08l-.04-.26v-.63c0-.91-.25-1.51-.75-1.81-.3-.17-.81-.26-1.55-.26h-1.1v3.11h-1.39v-7.92h2.77Zm-4.25-.4c-1.2,1.21-1.8,2.68-1.8,4.39s.6,3.2,1.8,4.42c1.2,1.22,2.67,1.83,4.39,1.83s3.19-.6,4.39-1.83c1.2-1.22,1.81-2.69,1.81-4.42s-.61-3.18-1.81-4.39c-1.21-1.22-2.67-1.82-4.39-1.82s-3.17,.6-4.39,1.82m9.49,9.5c-1.4,1.41-3.11,2.12-5.11,2.12s-3.7-.71-5.1-2.12c-1.39-1.41-2.09-3.11-2.09-5.12s.7-3.68,2.11-5.09c1.4-1.4,3.09-2.11,5.08-2.11s3.7,.7,5.11,2.11c1.42,1.4,2.12,3.1,2.12,5.09s-.7,3.7-2.12,5.12"/></svg>