<svg role="img" xmlns="http://www.w3.org/2000/svg" width="200" height="106" viewBox="0 0 200 106">
  <title>all grins 4 kids pediatric dentistry</title>
  <path class="vocation" fill="#261E64" d="M6 96.3c-.6-.2-3.2-.1-4.2-.1v9.8h1v-4.5c1.9-.1 3.5.2 4.6-1 1.1-1.5.4-3.9-1.4-4.2zm.6 3.3c-.7 1.1-2.6.7-3.8.8v-3.3c.7 0 2.6-.1 3.1.2.9.3 1.3 1.5.7 2.3zm6.5-3.5h5.6v1h-4.6v3.1h4.6v1h-4.6v3.8h4.6v1h-5.6v-9.9zm15.3.4c-.9-.4-3.8-.4-5.2-.4v9.8c1.6 0 4.7.2 5.9-.5 3.4-1.8 3-7.8-.7-8.9zm1.4 6.9c-1.2 1.8-3.4 1.5-5.7 1.5V97c1.3 0 3.1.1 3.7.3 2.6.7 3.3 4.1 2 6.1zm6.2-7.3h1v9.8h-1v-9.8zm9.8 0-4.6 9.8h1.1l1.5-3.2H48l1.5 3.2h1.1L46 96.1h-.2zm-1.6 5.6 1.7-3.5 1.7 3.5h-3.4zm8.7-5.6h5.3v1H56v8.8h-1v-8.8h-2.2v-1zm14.7 4.9c2.2-.9 1.8-4.4-.5-4.8-.6-.2-3.2-.1-4.1-.1v9.8h1v-4.5h.6l3.5 4.5h1.2l-3.5-4.5c.6-.1 1.3-.2 1.8-.4zm-3.7-.6v-3.3c1.5.1 4.1-.4 4.1 1.6 0 2.1-2.6 1.7-4.1 1.7zm10.3-4.3h1v9.8h-1v-9.8zm8.2 7.9c1.7 1.7 5 1.6 6.5-.4l.8.6c-3 3.7-9.7 1.8-9.5-3.2-.1-5 6.7-6.9 9.5-3l-.8.6c-1.3-1.7-3.8-2.2-5.7-1.1-2.3 1.1-2.7 4.7-.8 6.5zm32-7.5c-.9-.4-3.8-.4-5.2-.4v9.8c1.6 0 4.7.2 5.9-.5 3.3-1.8 3-7.8-.7-8.9zm1.4 6.9c-1.2 1.8-3.4 1.5-5.7 1.5V97c1.3 0 3.1.1 3.7.3 2.5.7 3.3 4.1 2 6.1zm6.8-7.3h5.6v1h-4.6v3.1h4.6v1h-4.6v3.8h4.6v1h-5.6v-9.9zm17.2 0h1v9.8h-.2l-6.4-7.4v7.4h-1v-9.8h.2l6.5 7.5v-7.5zm5.7 0h5.3v1h-2.2v8.8h-1v-8.8h-2.2v-1zm9.8 0h1v9.8h-1v-9.8zm5.5 7.9.8-.5c.6 1.1 1.3 1.6 2 1.6 1.3.1 2.4-1.5 1.5-2.6-.9-1.3-3.9-2.5-3.7-4.4.1-2.8 3.6-3 4.9-.7l-.8.6c-.6-.8-.9-1.2-1.8-1.2-1-.1-1.6 1-1.2 1.9.4.8.7.8 1.7 1.6 5.6 3.5-.5 8.8-3.4 3.7zm10.1-7.9h5.3v1H174v8.8h-1v-8.8h-2.2v-1zm14.7 4.9c2.2-.9 1.8-4.4-.5-4.8-.6-.2-3.2-.1-4.1-.1v9.8h1v-4.5h.6l3.5 4.5h1.2l-3.5-4.5c.7-.1 1.4-.2 1.8-.4zm-3.6-.6v-3.3c1.5.1 4.1-.4 4.1 1.6 0 2.1-2.6 1.7-4.1 1.7zm16.6-4.3-3.1 5.1v4.7h-1v-4.7l-3.2-5.1h1.1l2.5 4 2.5-4h1.2z"/>
  <path class="name" fill="#2179BF" d="M23 52.7c0 .9-.7 1.6-1.6 1.6h-.2c-.9 0-1.6-.7-1.6-1.6V38.9c0-3.2-1.4-7.1-9-7.1-7.5 0-8.9 3.9-8.9 5.6 0 1.7.9 2.9 2.8 2.9s2.8-1.7 2.8-2.9c0 0-1.2 0-1.2-1.8s1.2-2.8 4-2.8h1.1c2.2 0 3.9 1.8 3.9 3.9V42h-3C6.9 42 .4 43.7.4 49.5c0 2.7 1.3 6.1 7 6.1s7.8-4.9 7.8-4.9v.5c0 2.4 2 4.4 4.4 4.4h1.3c1.6 0 3-1.3 3-3v-.2H23v.3zm-7.8-5.3c0 4.3-3.6 6.4-5.7 6.4s-4.6-.8-4.6-4.3c0-4.1 2.4-6.4 6.3-6.4h3.9c.1 0 .1 0 .1 4.3zm17.3 6.7 3.2.4v.9h-11v-.8L28 54V20.9l-3.3-.4v-.9h7.8v34.5zm12.8 0 3.2.4v.9h-11v-.8l3.3-.5V20.9l-3.3-.4v-.9h7.8v34.5zM78.9 6.4c-1.8 0-2.5 1.6-2.5 2.4 0 0 1.3.1 1.3 1.4 0 1.4-.9 1.8-2.5 2.4-1-1.1-2.6-2.1-6.4-2.1-3.8 0-9 1.6-9 7.5s3.9 6.7 3.9 6.7-3.2.9-3.2 4.5c0 4.9 5.5 4.8 5.5 4.8h7c4.5 0 4.8 2.3 4.8 3.6 0 3.7-3.8 6.9-9.4 6.9-4.4 0-5.5-3.1-5.5-4.8 0-1.6 1.4-3.5 1.4-3.5s-.8-.2-1.8-.2c-1.4 0-4.1 1-4.1 3.9 0 3.5 3.3 5.4 9.6 5.4s10.9-3 10.9-9.2c0-6-4.3-6.4-6.8-6.4h-5.8c-1 0-3.5-.2-3.5-2.2 0-2.1 2.1-2.3 2.7-2.3.6.1 1.1.3 3 .3 6.7 0 8.8-3.7 8.8-7.5S76 13.4 76 13.4s5.6 0 5.6-4.6c-.1-1.3-1-2.4-2.7-2.4zM73 19.7c0 1.6-.7 5.1-4.5 5.1S64 21.1 64 19.7v-3.5c0-2.1 1-5.1 4.5-5.1 3.4 0 4.5 3 4.5 5.1v3.5zm27.6-5.8c0 1.7-1.1 2.7-2.7 2.7s-2.4-1.1-2.4-1.1.5-.6.5-1.4c0-.8-.7-1.7-1.8-1.7-1.7 0-3.6 2.7-4.2 3.6v16.8l3.6.5v.8H82.4v-.8l3.1-.5V12.3l-3.1-.4V11H90v3.4c.6-.9 2.7-3.8 6.3-3.8 3 0 4.3 1.6 4.3 3.3zM104 2.7c0-1.6 1.3-3 3-3 1.6 0 3 1.3 3 3 0 1.6-1.3 3-3 3s-3-1.3-3-3zm9 31.4h-10.7v-.8l3.1-.5V12.3l-3.1-.4V11h7.6v21.8l3.1.4v.9zm12.5 0h-10.4v-.8l3.1-.5V12.3l-3.1-.4V11h7.6v4.9c.9-1.5 3.7-5.3 8.8-5.3 5.2 0 6.8 2.9 6.8 6.4v15.8l3.2.5v.8h-10.3v-.8l2.6-.5V16.6s.1-4.6-3.7-4.6c-3.6 0-6.5 3.9-7.4 5.3v15.4l2.8.4v1zm23.9-6.3s-1 1.1-1 2.3c0 2.4 2.8 3.5 4.6 3.5 1.7 0 6.5-.8 6.5-4.6 0-2.7-2.6-3-7.1-4.6-4.5-1.6-7.4-2.8-7.4-6.6 0-4.5 3.2-7.3 8.3-7.3 6.7 0 7.6 4 7.6 5.4 0 1.1-.6 2.6-2 2.6-2.1 0-2.3-2-2.3-2s1.1-.5 1.1-2.1c0-3-4.5-3-4.5-3s-6.1.2-6.1 4.2c0 2.6 3 2.8 7.6 4.5 4.5 1.7 6.7 2.7 6.7 6.8 0 2.9-1.2 7.6-8.1 7.6-7.9 0-8.7-4.5-8.7-5.6 0-1.1.6-2.9 2.5-2.9 1.7.1 2.3 1.8 2.3 1.8zm50.1 43.3c0 3-1.3 7.8-8.4 7.8-8.2 0-9-4.6-9-5.8 0-1.1.6-3 2.6-3 1.9 0 2.6 1.7 2.6 1.7s-1 1.1-1 2.4c0 2.5 2.9 3.6 4.7 3.6 1.8 0 6.7-.9 6.7-4.7 0-2.8-2.7-3.1-7.4-4.8-4.7-1.7-7.6-2.9-7.6-6.8 0-4.7 3.4-7.5 8.6-7.5 6.9 0 7.8 4.2 7.8 5.6 0 1.2-.6 2.7-2.1 2.7-2.2 0-2.3-2.1-2.3-2.1s1.1-.5 1.1-2.2c0-3.1-4.7-3.1-4.7-3.1s-6.4.2-6.4 4.4c0 2.7 3.1 2.9 7.8 4.6 4.7 1.9 7 3 7 7.2zm-56.6-28c1.7 0 3 1.4 3 3 0 1.7-1.4 3-3 3-1.7 0-3-1.4-3-3s1.3-3 3-3zm3.1 34.1 3.2.4v.9h-11.1v-.8l3.2-.5V56l-3.2-.4v-.9h7.9v22.5zm29.6-35.6h-7.8v.9l3.3.4v16.9c-2.1-5.3-6.4-5.7-8.2-5.7-2.9 0-10.7 1.8-10.7 12.4 0 9 5.8 12.4 11.3 12.4 3.4 0 6.2-2.1 7.7-5.6v5.1h7.7v-.8l-3.2-.5V41.6zm-4.5 27.8c0 2.1-1.9 8.5-7.5 8.5-6.4 0-6.4-7.4-6.4-8.6v-5.2c0-3.2.7-8.8 6.2-8.8 5.7 0 7.6 6.1 7.6 8.8v5.3zM135 77.2l2.5.4v.8h-10.8v-.9l2.8-.5-8.7-11.5-1.3 1.1V77l2.7.4v.9h-10.5v-.8l3.2-.5V42.8l-3.2-.4v-.9h7.8v23.8l10.7-8.7-4-1.1v-.9h8.6v.9l-2.9.9-7.7 6.4L135 77.2zm-33 6V41.4h-1.2L67.4 89h28.7v17.3h5.9V89h7.3v-5.7H102zm-5.9 0H78.3L96.1 58v25.2z"/>
  <g class="mark">
    <path fill="#261E64" d="M74.3 62.9c-6.1 12.5-19.2 20-36 20.5h-1.5c-15.1.1-28-7-35.8-19.7-.6-.9-.3-2.1.6-2.6.9-.6 2.1-.3 2.6.6 7.2 11.8 19.6 18.4 33.9 17.9 9.7-.3 18-3.1 24.2-7.9l-6.6-6.8c-.3-.3-.3-.8 0-1.2.3-.3.8-.3 1.2 0l6.7 6.9c.2-.2.5-.4.7-.6l-6.4-6.6c-.3-.3-.3-.8 0-1.2.3-.3.8-.3 1.2 0l6.4 6.6.6-.6-6.1-6.3c-.3-.3-.3-.8 0-1.2.3-.3.8-.3 1.2 0l6 6.2c.2-.2.3-.4.5-.7L62 60.5c-.3-.3-.3-.8 0-1.2.3-.3.8-.3 1.2 0l5.5 5.7c.2-.2.3-.5.5-.7L64 58.9c-.3-.3-.3-.8 0-1.2.3-.3.8-.3 1.2 0l4.9 5.1c.1-.3.3-.5.4-.8l-4.6-4.7c-.3-.3-.3-.8 0-1.2.3-.3.8-.3 1.2 0l4.3 4.4c.6-.5 1.4-.6 2-.2 1 .5 1.4 1.7.9 2.6z"/>
    <path fill="#2179BF" d="M62.3 50c-.4 0 .2.8.2 1.3 0 1.6-2.9 3.6-4.5 4.3-4 1.6-6.3 2.6-6.3 4.8 0 1.5 1.4 3.3 1.9 3.1s.2-2 1.3-2.9c1.2-.8 10.3-2.8 10.3-7.4 0-1.4-1.4-3.2-2.9-3.2zM59 58.1c3.6-2.2 4.3-3.1 5.3-5.6.1 2.6-1.5 4-5.3 5.6z"/>
  </g>
</svg>